<svg xmlns="http://www.w3.org/2000/svg" viewBox="0 0 250 180" width="100%" height="100%">
  <style>
    .bg { fill: #050814; stroke: #1e293b; stroke-width: 1.5; rx: 12px; }
    .title { font-family: system-ui, -apple-system, sans-serif; font-weight: 700; font-size: 15px; fill: #ffffff; }
    .tagline { font-family: system-ui, -apple-system, sans-serif; font-weight: 700; font-size: 11px; fill: #3b82f6; }
    .desc { font-family: system-ui, -apple-system, sans-serif; font-size: 10.5px; fill: #94a3b8; }
    .badge { fill: #1e293b; rx: 4px; }
    .badge-text { font-family: system-ui, -apple-system, sans-serif; font-weight: 600; font-size: 9px; fill: #cbd5e1; text-anchor: middle; }
    .featured { fill: #2563eb; rx: 3px; }
    .featured-text { font-family: system-ui, -apple-system, sans-serif; font-weight: 700; font-size: 8px; fill: #ffffff; text-anchor: middle; }
    .icon { fill: #3b82f6; }
  </style>

  <!-- Card Background -->
  <rect x="1" y="1" width="248" height="178" rx="12" class="bg" />

  <!-- Header Icon & Title -->
  <g transform="translate(15, 20)">
    <path class="icon" d="M 12 2 L 2 2 C 0.9 2 0 2.9 0 4 L 0 12 C 0 13.1 0.9 14 2 14 L 12 14 C 13.1 14 14 13.1 14 12 L 14 4 C 14 2.9 13.1 2 12 2 Z M 12 12 L 2 12 L 2 6 L 12 6 Z" transform="scale(1.1)"/>
    <text x="22" y="11" class="title">WalletWatch</text>
  </g>

  <!-- Featured Badge -->
  <rect x="180" y="18" width="55" height="15" class="featured" />
  <text x="207.5" y="28.5" class="featured-text">Featured</text>

  <!-- Tagline -->
  <text x="15" y="60" class="tagline">Personal Finance Dashboard</text>

  <!-- Description (wrapped) -->
  <text x="15" y="78" class="desc">
    <tspan x="15" dy="0">Track income, expenses &amp; manage</tspan>
    <tspan x="15" dy="16">budgets with insightful analytics</tspan>
    <tspan x="15" dy="16">and interactive charts.</tspan>
  </text>

  <!-- Tech Capsules -->
  <g transform="translate(15, 140)">
    <!-- React -->
    <rect x="0" y="0" width="45" height="16" class="badge" />
    <text x="22.5" y="11" class="badge-text">React</text>

    <!-- Node -->
    <rect x="50" y="0" width="45" height="16" class="badge" />
    <text x="72.5" y="11" class="badge-text">Node</text>

    <!-- MongoDB -->
    <rect x="100" y="0" width="55" height="16" class="badge" />
    <text x="127.5" y="11" class="badge-text">MongoDB</text>
  </g>
</svg>
